# Blender 4.5.2 LTS
# www.blender.org
mtllib axe1.mtl
o Player_Cube
v -0.306895 0.525831 -0.706984
v -0.310164 0.524466 -0.306999
v -0.310210 -0.155631 -0.309320
v -0.306941 -0.154266 -0.709304
v -0.511666 0.524485 -0.308646
v -0.511713 -0.155612 -0.310967
v -0.508397 0.525850 -0.708630
v -0.508444 -0.154247 -0.710951
v -0.510078 -0.154930 -0.510959
v -0.510125 -0.835028 -0.513280
v -0.308622 -0.835047 -0.511634
v -0.308576 -0.154949 -0.509313
v -0.310164 0.524468 -0.306999
v -0.311798 0.523785 -0.107007
v -0.311844 -0.156313 -0.109328
v -0.310210 -0.155630 -0.309320
v -0.511666 0.524487 -0.308646
v -0.511713 -0.155611 -0.310967
v -0.510125 -0.835028 -0.513280
v -0.308622 -0.835047 -0.511634
v -0.310257 -0.835729 -0.311641
v -0.511759 -0.835710 -0.313288
v -0.310210 -0.155631 -0.309320
v -0.511713 -0.155612 -0.310967
v -0.206116 0.928843 -0.704784
v -0.209385 0.927478 -0.304801
v -0.209412 0.524456 -0.306176
v -0.206144 0.525821 -0.706160
v -0.612391 0.927516 -0.308094
v -0.612418 0.524495 -0.309469
v -0.609122 0.928881 -0.708078
v -0.609149 0.525860 -0.709453
v -0.308576 -0.154949 -0.509313
v -0.508444 -0.154247 -0.710951
v -0.508490 -0.834345 -0.713272
v -0.510078 -0.154930 -0.510959
v -0.508444 -0.154246 -0.710951
v -0.506809 -0.153564 -0.910944
v -0.305307 -0.153583 -0.909297
v -0.306941 -0.154265 -0.709304
v -0.506763 0.526534 -0.908623
v -0.508397 0.525852 -0.708630
v -0.306895 0.525833 -0.706984
v -0.305260 0.526515 -0.906976
v -0.306988 -0.834365 -0.711626
v -0.306941 -0.154266 -0.709304
v -0.513300 0.523805 -0.108654
v -0.513347 -0.156293 -0.110975
v -0.185801 0.949361 -0.724550
v -0.189397 0.947860 -0.284567
v -0.189426 0.504537 -0.286080
v -0.185831 0.506038 -0.726063
v -0.632702 0.947902 -0.288189
v -0.632732 0.504580 -0.289703
v -0.629106 0.949403 -0.728173
v -0.629136 0.506081 -0.729686
v -0.270182 0.525827 -0.706684
v -0.273450 0.524462 -0.306699
v -0.273497 -0.155635 -0.309020
v -0.270227 -0.154270 -0.709004
v -0.306895 0.525831 -0.706984
v -0.306941 -0.154266 -0.709304
v -0.310210 -0.155631 -0.309320
v -0.310164 0.524466 -0.306999
vn 1.0000 -0.0001 0.0082
vn -0.0082 -0.0034 1.0000
vn -1.0000 0.0001 -0.0082
vn -0.0001 -1.0000 -0.0034
vn 0.0001 1.0000 0.0034
vn 0.0082 0.0034 -1.0000
vt 0.625000 0.375000
vt 0.500000 0.375000
vt 0.500000 0.000000
vt 0.625000 0.000000
vt 0.437500 0.375000
vt 0.437500 0.000000
vt 0.312500 0.375000
vt 0.312500 0.000000
vt 0.562500 0.375000
vt 0.562500 0.500000
vt 0.437500 0.500000
vt 0.312500 0.500000
vt 0.125000 0.375000
vt 0.125000 0.000000
vt 0.187500 0.000000
vt 0.187500 0.375000
vt 0.812500 0.375000
vt 0.875000 0.375000
vt 0.875000 0.000000
vt 0.812500 0.000000
vt 0.750000 0.375000
vt 0.750000 0.000000
vt 0.187500 0.500000
vt 0.125000 0.500000
vt 0.000000 0.375000
vt 0.062500 0.375000
vt 0.062500 0.000000
vt 0.000000 0.000000
vt 0.500000 0.750000
vt 0.375000 0.750000
vt 0.375000 0.500000
vt 0.500000 0.500000
vt 0.250000 0.750000
vt 0.250000 0.500000
vt 0.125000 0.750000
vt 0.375000 1.000000
vt 0.250000 1.000000
vt 0.125000 1.000000
vt 0.250000 0.375000
vt 0.250000 0.000000
vt 0.812500 0.500000
vt 0.750000 0.500000
vt 0.687500 0.375000
vt 0.687500 0.500000
vt 0.000000 0.750000
vt 0.000000 0.500000
vt 0.062500 0.500000
vt 0.687500 0.000000
vt 1.000000 0.750000
vt 0.875000 0.750000
vt 0.875000 0.500000
vt 1.000000 0.500000
vt 0.750000 0.750000
vt 0.625000 0.750000
vt 0.625000 0.500000
vt 0.875000 1.000000
vt 0.750000 1.000000
vt 0.625000 1.000000
vt 1.000000 0.375000
vt 1.000000 0.000000
vt 1.000000 0.343750
vt 0.875000 0.343750
vt 0.984375 0.000000
vt 0.984375 0.375000
vt 0.890625 0.375000
vt 0.890625 0.000000
vt 0.875000 0.031250
vt 1.000000 0.031250
s 1
usemtl Character
f 1/1/1 2/2/1 3/3/1 4/4/1
f 2/2/2 5/5/2 6/6/2 3/3/2
f 5/5/3 7/7/3 8/8/3 6/6/3
f 8/9/4 4/10/4 3/11/4 6/5/4
f 5/5/5 2/11/5 1/12/5 7/7/5
f 9/13/2 10/14/2 11/15/2 12/16/2
f 13/17/1 14/18/1 15/19/1 16/20/1
f 17/21/6 13/17/6 16/20/6 18/22/6
f 19/16/4 20/23/4 21/24/4 22/13/4
f 23/25/2 24/26/2 22/27/2 21/28/2
f 25/29/1 26/30/1 27/31/1 28/32/1
f 26/30/2 29/33/2 30/34/2 27/31/2
f 29/33/3 31/35/3 32/24/3 30/34/3
f 32/30/4 28/36/4 27/37/4 30/33/4
f 29/33/5 26/37/5 25/38/5 31/35/5
f 33/16/1 23/39/1 21/40/1 20/15/1
f 34/26/3 35/27/3 10/14/3 9/13/3
f 24/26/3 36/13/3 19/14/3 22/27/3
f 37/21/4 38/17/4 39/41/4 40/42/4
f 41/43/5 42/21/5 43/42/5 44/44/5
f 12/16/1 11/15/1 45/40/1 46/39/1
f 36/13/6 33/16/6 20/15/6 19/14/6
f 46/25/6 45/28/6 35/27/6 34/26/6
f 1/39/6 4/40/6 8/8/6 7/7/6
f 25/45/6 28/46/6 32/24/6 31/35/6
f 24/13/5 23/24/5 33/47/5 36/26/5
f 47/43/3 17/21/3 18/22/3 48/48/3
f 14/1/2 47/43/2 48/48/2 15/4/2
f 44/1/6 39/4/6 38/48/6 41/43/6
f 47/43/5 14/44/5 13/42/5 17/21/5
f 41/43/3 38/48/3 37/22/3 42/21/3
f 10/16/4 35/13/4 45/24/4 11/23/4
f 42/21/2 37/22/2 40/20/2 43/17/2
f 18/21/4 16/42/4 15/41/4 48/17/4
f 43/17/1 40/20/1 39/19/1 44/18/1
f 34/13/5 9/26/5 12/47/5 46/24/5
f 49/49/1 50/50/1 51/51/1 52/52/1
f 50/50/2 53/53/2 54/42/2 51/51/2
f 53/53/3 55/54/3 56/55/3 54/42/3
f 56/50/4 52/56/4 51/57/4 54/53/4
f 53/53/5 50/57/5 49/58/5 55/54/5
f 49/29/6 52/32/6 56/55/6 55/54/6
f 57/59/1 58/18/1 59/19/1 60/60/1
f 61/59/3 62/60/3 63/19/3 64/18/3
f 58/18/5 57/59/5 61/61/5 64/62/5
f 57/59/6 60/60/6 62/63/6 61/64/6
f 59/19/2 58/18/2 64/65/2 63/66/2
f 60/60/4 59/19/4 63/67/4 62/68/4
