# Blender v2.79 (sub 0) OBJ File: ''
# www.blender.org
mtllib block_4_10.mtl
o Cube.022
v 0.500000 0.166667 0.250000
v -1.070000 0.166667 0.250000
v -0.500000 0.166667 -0.750000
v 0.500000 0.166667 -0.750000
v 0.500000 -0.500000 0.250000
v 0.500000 -0.500000 -0.750000
v -0.500000 -0.500000 -0.749999
v -1.070000 -0.500000 0.250000
vn 0.0000 -1.0000 -0.0000
vn 0.0000 1.0000 0.0000
vn -1.0000 -0.0000 0.0000
vn 0.0000 0.0000 1.0000
vn 0.8688 0.0000 0.4952
vn 0.0000 0.0000 -1.0000
usemtl Material.022
s 1
f 1//1 2//1 3//1 4//1
f 5//2 6//2 7//2 8//2
f 1//3 4//3 6//3 5//3
f 4//4 3//4 7//4 6//4
f 3//5 2//5 8//5 7//5
f 5//6 8//6 2//6 1//6
