# Blender v2.79 (sub 0) OBJ File: ''
# www.blender.org
mtllib block_6_8.mtl
o Cube.021
v -0.500000 -0.500000 0.250000
v 1.360000 -0.500000 0.250000
v 1.500000 -0.500000 -0.000000
v 1.070000 -0.500000 -0.750000
v -0.500000 -0.500000 -0.750000
v -0.500000 0.500000 0.250000
v -0.500000 0.500000 -0.750000
v 1.070000 0.500000 -0.750000
v 1.500000 0.500000 0.000000
v 1.360000 0.500000 0.250000
vn -0.0000 1.0000 0.0000
vn 1.0000 -0.0000 0.0000
vn -0.0000 -1.0000 -0.0000
vn 0.0000 -0.0000 1.0000
vn 0.0000 0.0000 -1.0000
vn -0.8675 -0.0000 0.4974
vn -0.8725 0.0000 -0.4886
usemtl Material.021
s 1
f 1//1 2//1 3//1 4//1 5//1
f 6//2 1//2 5//2 7//2
f 6//3 7//3 8//3 9//3 10//3
f 7//4 5//4 4//4 8//4
f 1//5 6//5 10//5 2//5
f 8//6 4//6 3//6 9//6
f 9//7 3//7 2//7 10//7
