# Blender v2.79 (sub 0) OBJ File: ''
# www.blender.org
mtllib block_6_14.mtl
o Cube.028
v 0.500000 0.500000 0.500000
v 0.500000 0.500000 -1.250000
v -0.500000 0.500000 -1.250000
v -1.500000 0.500000 0.500000
v 0.500000 -0.500000 0.500000
v -1.500000 -0.500000 0.500000
v -0.500000 -0.500000 -1.249999
v 0.500000 -0.500000 -1.250000
vn 0.0000 -1.0000 -0.0000
vn 0.0000 1.0000 0.0000
vn -1.0000 0.0000 0.0000
vn 0.0000 0.0000 1.0000
vn 0.8682 0.0000 0.4961
vn 0.0000 0.0000 -1.0000
usemtl Material.028
s 1
f 1//1 4//1 3//1 2//1
f 5//2 8//2 7//2 6//2
f 1//3 2//3 8//3 5//3
f 2//4 3//4 7//4 8//4
f 3//5 4//5 6//5 7//5
f 5//6 6//6 4//6 1//6
