# Blender 4.5.1 LTS
# www.blender.org
mtllib shop2.mtl
o Player_Cube.001
v -0.700005 0.526869 0.179036
v -0.300005 0.526869 0.179010
v -0.300005 -0.153232 0.179010
v -0.700005 -0.153232 0.179036
v -0.299992 0.526869 0.380519
v -0.299992 -0.153232 0.380519
v -0.699992 0.526869 0.380545
v -0.699992 -0.153232 0.380545
v -0.499992 -0.153232 0.380532
v -0.499992 -0.833334 0.380532
v -0.500005 -0.833334 0.179023
v -0.500005 -0.153232 0.179023
v -0.300005 0.526871 0.179010
v -0.100005 0.526871 0.178997
v -0.100005 -0.153231 0.178997
v -0.300005 -0.153231 0.179010
v -0.299992 0.526871 0.380519
v -0.299992 -0.153231 0.380519
v -0.499992 -0.833334 0.380532
v -0.500005 -0.833334 0.179023
v -0.300005 -0.833334 0.179010
v -0.299992 -0.833334 0.380519
v -0.300005 -0.153232 0.179010
v -0.299992 -0.153232 0.380519
v -0.700012 0.929893 0.078281
v -0.300012 0.929893 0.078255
v -0.300012 0.526869 0.078255
v -0.700012 0.526869 0.078281
v -0.299986 0.929893 0.481274
v -0.299986 0.526869 0.481274
v -0.699986 0.929893 0.481300
v -0.699986 0.526869 0.481300
v -0.500005 -0.153232 0.179023
v -0.699992 -0.153232 0.380545
v -0.699992 -0.833334 0.380545
v -0.499992 -0.153232 0.380532
v -0.699992 -0.153231 0.380545
v -0.899992 -0.153231 0.380558
v -0.900005 -0.153231 0.179049
v -0.700005 -0.153231 0.179036
v -0.899992 0.526871 0.380558
v -0.699992 0.526871 0.380545
v -0.700005 0.526871 0.179036
v -0.900005 0.526871 0.179049
v -0.700005 -0.833334 0.179036
v -0.700005 -0.153232 0.179036
v -0.099992 0.526871 0.380506
v -0.099992 -0.153231 0.380506
v -0.720013 0.950345 0.058131
v -0.280013 0.950345 0.058103
v -0.280013 0.507020 0.058103
v -0.720013 0.507020 0.058131
v -0.279984 0.950345 0.501423
v -0.279984 0.507020 0.501423
v -0.719984 0.950345 0.501451
v -0.719984 0.507020 0.501451
v -0.700008 0.526869 0.142321
v -0.300008 0.526869 0.142295
v -0.300008 -0.153232 0.142295
v -0.700008 -0.153232 0.142321
v -0.700005 0.526869 0.179036
v -0.700005 -0.153232 0.179036
v -0.300005 -0.153232 0.179010
v -0.300005 0.526869 0.179010
vn -0.0001 -0.0000 -1.0000
vn 1.0000 -0.0000 -0.0001
vn 0.0001 -0.0000 1.0000
vn -0.0000 -1.0000 -0.0000
vn -0.0000 1.0000 -0.0000
vn -1.0000 -0.0000 0.0001
vt 0.625000 0.375000
vt 0.500000 0.375000
vt 0.500000 0.000000
vt 0.625000 0.000000
vt 0.437500 0.375000
vt 0.437500 0.000000
vt 0.312500 0.375000
vt 0.312500 0.000000
vt 0.562500 0.375000
vt 0.562500 0.500000
vt 0.437500 0.500000
vt 0.312500 0.500000
vt 0.125000 0.375000
vt 0.125000 0.000000
vt 0.187500 0.000000
vt 0.187500 0.375000
vt 0.812500 0.375000
vt 0.875000 0.375000
vt 0.875000 0.000000
vt 0.812500 0.000000
vt 0.750000 0.375000
vt 0.750000 0.000000
vt 0.187500 0.500000
vt 0.125000 0.500000
vt 0.000000 0.375000
vt 0.062500 0.375000
vt 0.062500 0.000000
vt 0.000000 0.000000
vt 0.500000 0.750000
vt 0.375000 0.750000
vt 0.375000 0.500000
vt 0.500000 0.500000
vt 0.250000 0.750000
vt 0.250000 0.500000
vt 0.125000 0.750000
vt 0.375000 1.000000
vt 0.250000 1.000000
vt 0.125000 1.000000
vt 0.250000 0.375000
vt 0.250000 0.000000
vt 0.812500 0.500000
vt 0.750000 0.500000
vt 0.687500 0.375000
vt 0.687500 0.500000
vt 0.000000 0.750000
vt 0.000000 0.500000
vt 0.062500 0.500000
vt 0.687500 0.000000
vt 1.000000 0.750000
vt 0.875000 0.750000
vt 0.875000 0.500000
vt 1.000000 0.500000
vt 0.750000 0.750000
vt 0.625000 0.750000
vt 0.625000 0.500000
vt 0.875000 1.000000
vt 0.750000 1.000000
vt 0.625000 1.000000
vt 1.000000 0.375000
vt 1.000000 0.000000
vt 1.000000 0.343750
vt 0.875000 0.343750
vt 0.984375 0.000000
vt 0.984375 0.375000
vt 0.890625 0.375000
vt 0.890625 0.000000
vt 0.875000 0.031250
vt 1.000000 0.031250
s 1
usemtl Character.001
f 1/1/1 2/2/1 3/3/1 4/4/1
f 2/2/2 5/5/2 6/6/2 3/3/2
f 5/5/3 7/7/3 8/8/3 6/6/3
f 8/9/4 4/10/4 3/11/4 6/5/4
f 5/5/5 2/11/5 1/12/5 7/7/5
f 9/13/2 10/14/2 11/15/2 12/16/2
f 13/17/1 14/18/1 15/19/1 16/20/1
f 17/21/6 13/17/6 16/20/6 18/22/6
f 19/16/4 20/23/4 21/24/4 22/13/4
f 23/25/2 24/26/2 22/27/2 21/28/2
f 25/29/1 26/30/1 27/31/1 28/32/1
f 26/30/2 29/33/2 30/34/2 27/31/2
f 29/33/3 31/35/3 32/24/3 30/34/3
f 32/30/4 28/36/4 27/37/4 30/33/4
f 29/33/5 26/37/5 25/38/5 31/35/5
f 33/16/1 23/39/1 21/40/1 20/15/1
f 34/26/3 35/27/3 10/14/3 9/13/3
f 24/26/3 36/13/3 19/14/3 22/27/3
f 37/21/4 38/17/4 39/41/4 40/42/4
f 41/43/5 42/21/5 43/42/5 44/44/5
f 12/16/1 11/15/1 45/40/1 46/39/1
f 36/13/6 33/16/6 20/15/6 19/14/6
f 46/25/6 45/28/6 35/27/6 34/26/6
f 1/39/6 4/40/6 8/8/6 7/7/6
f 25/45/6 28/46/6 32/24/6 31/35/6
f 24/13/5 23/24/5 33/47/5 36/26/5
f 47/43/3 17/21/3 18/22/3 48/48/3
f 14/1/2 47/43/2 48/48/2 15/4/2
f 44/1/6 39/4/6 38/48/6 41/43/6
f 47/43/5 14/44/5 13/42/5 17/21/5
f 41/43/3 38/48/3 37/22/3 42/21/3
f 10/16/4 35/13/4 45/24/4 11/23/4
f 42/21/2 37/22/2 40/20/2 43/17/2
f 18/21/4 16/42/4 15/41/4 48/17/4
f 43/17/1 40/20/1 39/19/1 44/18/1
f 34/13/5 9/26/5 12/47/5 46/24/5
f 49/49/1 50/50/1 51/51/1 52/52/1
f 50/50/2 53/53/2 54/42/2 51/51/2
f 53/53/3 55/54/3 56/55/3 54/42/3
f 56/50/4 52/56/4 51/57/4 54/53/4
f 53/53/5 50/57/5 49/58/5 55/54/5
f 49/29/6 52/32/6 56/55/6 55/54/6
f 57/59/1 58/18/1 59/19/1 60/60/1
f 61/59/3 62/60/3 63/19/3 64/18/3
f 58/18/5 57/59/5 61/61/5 64/62/5
f 57/59/6 60/60/6 62/63/6 61/64/6
f 59/19/2 58/18/2 64/65/2 63/66/2
f 60/60/4 59/19/4 63/67/4 62/68/4
