# Blender v2.79 (sub 0) OBJ File: ''
# www.blender.org
mtllib smith1.mtl
o Player_Cube
v -0.477414 0.525831 0.225964
v -0.674576 0.524466 -0.122067
v -0.673375 -0.155631 -0.120080
v -0.476214 -0.154266 0.227951
v -0.499246 0.524485 -0.221392
v -0.498045 -0.155612 -0.219405
v -0.302085 0.525850 0.126639
v -0.300884 -0.154247 0.128626
v -0.399465 -0.154930 -0.045389
v -0.398264 -0.835028 -0.043403
v -0.573594 -0.835047 0.055923
v -0.574794 -0.154949 0.053936
v -0.674576 0.524468 -0.122067
v -0.773156 0.523785 -0.296082
v -0.771956 -0.156313 -0.294095
v -0.673375 -0.155630 -0.120080
v -0.499246 0.524487 -0.221392
v -0.498045 -0.155611 -0.219405
v -0.398264 -0.835028 -0.043403
v -0.573594 -0.835047 0.055923
v -0.672174 -0.835729 -0.118093
v -0.496845 -0.835710 -0.217418
v -0.673375 -0.155631 -0.120080
v -0.498045 -0.155612 -0.219405
v -0.565791 0.928843 0.274449
v -0.762952 0.927478 -0.073581
v -0.762241 0.524456 -0.072404
v -0.565079 0.525821 0.275627
v -0.412292 0.927516 -0.272232
v -0.411581 0.524495 -0.271055
v -0.215131 0.928881 0.075799
v -0.214420 0.525860 0.076976
v -0.574794 -0.154949 0.053936
v -0.300884 -0.154247 0.128626
v -0.299684 -0.834345 0.130613
v -0.399465 -0.154930 -0.045389
v -0.300884 -0.154246 0.128626
v -0.202304 -0.153564 0.302642
v -0.377633 -0.153583 0.401967
v -0.476214 -0.154265 0.227951
v -0.203504 0.526534 0.300655
v -0.302085 0.525852 0.126639
v -0.477414 0.525833 0.225964
v -0.378834 0.526515 0.399980
v -0.475013 -0.834365 0.229938
v -0.476214 -0.154266 0.227951
v -0.597827 0.523805 -0.395407
v -0.596626 -0.156293 -0.393420
v -0.573502 0.949361 0.301724
v -0.790379 0.947860 -0.081110
v -0.789597 0.504537 -0.079815
v -0.572719 0.506038 0.303019
v -0.404654 0.947902 -0.299626
v -0.403872 0.504580 -0.298330
v -0.187777 0.949403 0.083209
v -0.186994 0.506081 0.084504
v -0.509359 0.525827 0.244061
v -0.706521 0.524462 -0.103970
v -0.705320 -0.155635 -0.101983
v -0.508159 -0.154270 0.246048
v -0.477414 0.525831 0.225964
v -0.476214 -0.154266 0.227951
v -0.673375 -0.155631 -0.120080
v -0.674576 0.524466 -0.122067
vt 0.625000 0.375000
vt 0.500000 0.375000
vt 0.500000 0.000000
vt 0.625000 0.000000
vt 0.437500 0.375000
vt 0.437500 0.000000
vt 0.312500 0.375000
vt 0.312500 0.000000
vt 0.562500 0.375000
vt 0.562500 0.500000
vt 0.437500 0.500000
vt 0.437500 0.375000
vt 0.437500 0.500000
vt 0.312500 0.500000
vt 0.125000 0.375000
vt 0.125000 0.000000
vt 0.187500 0.000000
vt 0.187500 0.375000
vt 0.812500 0.375000
vt 0.875000 0.375000
vt 0.875000 0.000000
vt 0.812500 0.000000
vt 0.750000 0.375000
vt 0.750000 0.000000
vt 0.187500 0.375000
vt 0.187500 0.500000
vt 0.125000 0.500000
vt 0.125000 0.375000
vt 0.000000 0.375000
vt 0.062500 0.375000
vt 0.062500 0.000000
vt 0.000000 0.000000
vt 0.500000 0.750000
vt 0.375000 0.750000
vt 0.375000 0.500000
vt 0.500000 0.500000
vt 0.250000 0.750000
vt 0.250000 0.500000
vt 0.125000 0.750000
vt 0.125000 0.500000
vt 0.375000 0.750000
vt 0.375000 1.000000
vt 0.250000 1.000000
vt 0.250000 0.750000
vt 0.250000 1.000000
vt 0.125000 1.000000
vt 0.187500 0.375000
vt 0.250000 0.375000
vt 0.250000 0.000000
vt 0.187500 0.000000
vt 0.062500 0.375000
vt 0.062500 0.000000
vt 0.125000 0.375000
vt 0.125000 0.000000
vt 0.750000 0.375000
vt 0.812500 0.375000
vt 0.812500 0.500000
vt 0.750000 0.500000
vt 0.687500 0.375000
vt 0.750000 0.375000
vt 0.750000 0.500000
vt 0.687500 0.500000
vt 0.250000 0.000000
vt 0.250000 0.375000
vt 0.000000 0.375000
vt 0.000000 0.000000
vt 0.250000 0.375000
vt 0.250000 0.000000
vt 0.000000 0.750000
vt 0.000000 0.500000
vt 0.125000 0.375000
vt 0.125000 0.500000
vt 0.062500 0.500000
vt 0.062500 0.375000
vt 0.687500 0.375000
vt 0.687500 0.000000
vt 0.625000 0.375000
vt 0.625000 0.000000
vt 0.625000 0.375000
vt 0.625000 0.000000
vt 0.687500 0.000000
vt 0.687500 0.500000
vt 0.750000 0.500000
vt 0.750000 0.000000
vt 0.187500 0.375000
vt 0.125000 0.375000
vt 0.125000 0.500000
vt 0.187500 0.500000
vt 0.812500 0.000000
vt 0.812500 0.375000
vt 0.750000 0.375000
vt 0.750000 0.500000
vt 0.812500 0.500000
vt 0.812500 0.375000
vt 0.875000 0.000000
vt 0.875000 0.375000
vt 0.125000 0.375000
vt 0.062500 0.375000
vt 0.062500 0.500000
vt 0.125000 0.500000
vt 1.000000 0.750000
vt 0.875000 0.750000
vt 0.875000 0.500000
vt 1.000000 0.500000
vt 0.750000 0.750000
vt 0.750000 0.500000
vt 0.625000 0.750000
vt 0.625000 0.500000
vt 0.875000 0.750000
vt 0.875000 1.000000
vt 0.750000 1.000000
vt 0.750000 0.750000
vt 0.750000 1.000000
vt 0.625000 1.000000
vt 0.500000 0.750000
vt 0.500000 0.500000
vt 1.000000 0.375000
vt 0.875000 0.375000
vt 0.875000 0.000000
vt 1.000000 0.000000
vt 1.000000 0.375000
vt 1.000000 0.000000
vt 0.875000 0.000000
vt 0.875000 0.375000
vt 1.000000 0.343750
vt 0.875000 0.343750
vt 0.984375 0.000000
vt 0.984375 0.375000
vt 0.890625 0.375000
vt 0.890625 0.000000
vt 0.875000 0.031250
vt 1.000000 0.031250
vn -0.8701 -0.0001 0.4929
vn -0.4929 -0.0034 -0.8701
vn 0.8701 0.0001 -0.4929
vn 0.0018 -1.0000 0.0029
vn -0.0018 1.0000 -0.0029
vn 0.4929 0.0034 0.8701
usemtl Character
s 1
f 1/1/1 2/2/1 3/3/1 4/4/1
f 2/2/2 5/5/2 6/6/2 3/3/2
f 5/5/3 7/7/3 8/8/3 6/6/3
f 8/9/4 4/10/4 3/11/4 6/12/4
f 5/5/5 2/13/5 1/14/5 7/7/5
f 9/15/2 10/16/2 11/17/2 12/18/2
f 13/19/1 14/20/1 15/21/1 16/22/1
f 17/23/6 13/19/6 16/22/6 18/24/6
f 19/25/4 20/26/4 21/27/4 22/28/4
f 23/29/2 24/30/2 22/31/2 21/32/2
f 25/33/1 26/34/1 27/35/1 28/36/1
f 26/34/2 29/37/2 30/38/2 27/35/2
f 29/37/3 31/39/3 32/40/3 30/38/3
f 32/41/4 28/42/4 27/43/4 30/44/4
f 29/37/5 26/45/5 25/46/5 31/39/5
f 33/47/1 23/48/1 21/49/1 20/50/1
f 34/51/3 35/52/3 10/16/3 9/15/3
f 24/30/3 36/53/3 19/54/3 22/31/3
f 37/55/4 38/56/4 39/57/4 40/58/4
f 41/59/5 42/60/5 43/61/5 44/62/5
f 12/18/1 11/17/1 45/63/1 46/64/1
f 36/53/6 33/47/6 20/50/6 19/54/6
f 46/65/6 45/66/6 35/52/6 34/51/6
f 1/67/6 4/68/6 8/8/6 7/7/6
f 25/69/6 28/70/6 32/40/6 31/39/6
f 24/71/5 23/72/5 33/73/5 36/74/5
f 47/75/3 17/23/3 18/24/3 48/76/3
f 14/77/2 47/75/2 48/76/2 15/78/2
f 44/79/6 39/80/6 38/81/6 41/59/6
f 47/75/5 14/82/5 13/83/5 17/23/5
f 41/59/3 38/81/3 37/84/3 42/60/3
f 10/85/4 35/86/4 45/87/4 11/88/4
f 42/60/2 37/84/2 40/89/2 43/90/2
f 18/91/4 16/92/4 15/93/4 48/94/4
f 43/90/1 40/89/1 39/95/1 44/96/1
f 34/97/5 9/98/5 12/99/5 46/100/5
f 49/101/1 50/102/1 51/103/1 52/104/1
f 50/102/2 53/105/2 54/106/2 51/103/2
f 53/105/3 55/107/3 56/108/3 54/106/3
f 56/109/4 52/110/4 51/111/4 54/112/4
f 53/105/5 50/113/5 49/114/5 55/107/5
f 49/115/6 52/116/6 56/108/6 55/107/6
f 57/117/1 58/118/1 59/119/1 60/120/1
f 61/121/3 62/122/3 63/123/3 64/124/3
f 58/118/5 57/117/5 61/125/5 64/126/5
f 57/117/6 60/120/6 62/127/6 61/128/6
f 59/119/2 58/118/2 64/129/2 63/130/2
f 60/120/4 59/119/4 63/131/4 62/132/4
